<svg width="148" height="24" viewBox="0 0 148 24" xmlns="http://www.w3.org/2000/svg"><title>scooter-logo</title><g fill="none" fill-rule="evenodd"><path d="M42.52 6.626c0-1.615 1.318-2.637 3.724-2.637 2.967 0 4.484 1.417 4.418 3.625l5.044-.923C55.508 2.77 52.146 0 46.508 0c-5.473 0-9.1 2.802-9.1 7.352 0 3.132 1.583 5.01 6.594 6.362 3.89 1.055 4.912 1.583 4.912 3.165 0 2.57-2.67 3.13-4.417 3.13-3.43 0-4.65-2.076-4.517-4.054l-4.978.758c-.1 3.56 2.934 7.286 9.264 7.286 5.604 0 9.758-3 9.758-7.68 0-3.793-2.637-5.243-7.186-6.463-2.704-.725-4.32-1.384-4.32-3.23zm13.046 10.187c0 4.912 3.33 7.187 7.45 7.187 3.528 0 5.802-1.68 7.187-4.286L65.95 18.1c-.626 1.416-1.417 2.24-2.802 2.24-1.978 0-2.736-1.582-2.736-3.46 0-2.67 1.252-5.87 3.923-5.87 1.45 0 2.373.726 2.538 2.506l4.484-1.186c-.56-2.868-2.605-4.945-6.89-4.945-5.374 0-8.9 4.483-8.9 9.428zM79.162 24c5.505 0 9.066-4.418 9.066-9.43 0-4.812-3.594-7.185-7.616-7.185-5.472 0-9 4.483-9 9.428 0 4.912 3.33 7.187 7.55 7.187zm-2.77-6.99c0-2.768 1.253-6.065 4.12-6.065 2.144 0 2.935 1.55 2.935 3.43 0 2.768-1.252 6.065-4.12 6.065-2.176 0-2.935-1.583-2.935-3.43zM96.725 24c5.505 0 9.066-4.418 9.066-9.43 0-4.812-3.593-7.185-7.615-7.185-5.472 0-9 4.483-9 9.428 0 4.912 3.33 7.187 7.55 7.187zm-2.77-6.99c0-2.768 1.253-6.065 4.122-6.065 2.142 0 2.934 1.55 2.934 3.43 0 2.768-1.252 6.065-4.12 6.065-2.176 0-2.934-1.583-2.934-3.43zm21.718 2.572c-.528.264-1.187.56-1.912.56-.692 0-1.252-.263-1.02-1.582l1.25-7.252h3.397l.626-3.462h-3.395l1.154-6.626-5.11 2.143-.792 4.483h-2.604l-.626 3.462h2.604l-1.32 7.582c-.592 3.462 1.452 5.11 4.848 5.11 1.055 0 2.373-.198 3.395-.593l-.494-3.825zm12.783-.923c-.56.955-1.45 1.845-3.23 1.845-2.276 0-3.1-1.78-2.87-3.593h10.847s.165-.66.23-.99c.858-4.35-1.22-8.537-6.856-8.537-5.275 0-8.87 4.417-8.87 9.46 0 4.913 3.298 7.155 7.518 7.155 3.23 0 5.736-1.385 7.12-3.66l-3.89-1.68zm-1.945-7.946c1.78 0 2.803 1.154 2.506 3.33h-6.198c.462-1.978 1.583-3.33 3.693-3.33zm21.454-2.868c-.66-.33-1.484-.46-2.176-.46-2.374 0-3.89 1.284-4.945 3.163l.462-2.704h-4.45l-2.77 15.692h4.747l1.286-7.285c.626-3.56 2.9-4.682 4.582-4.682.594 0 1.253.067 1.68.463l1.584-4.187z" fill="#FFF"/><g stroke="#FFF" stroke-width="2" stroke-linecap="square"><path d="M1 2h27"/><path d="M6 7h20" opacity=".8"/><path d="M16 12h8" opacity=".6"/><path d="M6 17h16" opacity=".5"/><path d="M1 22h19" opacity=".3"/></g></g></svg>