<?xml version="1.0" encoding="UTF-8" standalone="no"?>
<svg width="148px" height="24px" viewBox="0 0 148 24" version="1.1" xmlns="http://www.w3.org/2000/svg" xmlns:xlink="http://www.w3.org/1999/xlink" xmlns:sketch="http://www.bohemiancoding.com/sketch/ns">
    <!-- Generator: Sketch 3.3.1 (12002) - http://www.bohemiancoding.com/sketch -->
    <title>scooter-logo</title>
    <desc>Created with Sketch.</desc>
    <defs></defs>
    <g id="Page-1" stroke="none" stroke-width="1" fill="none" fill-rule="evenodd" sketch:type="MSPage">
        <g id="View-Variant-(Read-Only)-Copy-3" sketch:type="MSArtboardGroup" transform="translate(-100.000000, -29.000000)">
            <g id="Header" sketch:type="MSLayerGroup">
                <g id="scooter-logo" transform="translate(101.000000, 29.000000)" sketch:type="MSShapeGroup">
                    <path d="M41.5188253,6.62637363 C41.5188253,5.01098901 42.8375066,3.98901099 45.2441,3.98901099 C48.211133,3.98901099 49.7276165,5.40659341 49.6616824,7.61538462 L54.7056384,6.69230769 C54.5078363,2.76923077 51.1451989,0 45.5078363,0 C40.0353088,0 36.4089352,2.8021978 36.4089352,7.35164835 C36.4089352,10.4835165 37.9913527,12.3626374 43.0023417,13.7142857 C46.8924516,14.7692308 47.9144297,15.2967033 47.9144297,16.8791209 C47.9144297,19.4505495 45.2441,20.010989 43.4968472,20.010989 C40.0682758,20.010989 38.8484956,17.9340659 38.9803637,15.956044 L34.0023417,16.7142857 C33.9034406,20.2747253 36.9364077,24 43.266078,24 C48.8704736,24 53.0243198,21 53.0243198,16.3186813 C53.0243198,12.5274725 50.3869571,11.0769231 45.8375066,9.85714286 C43.1342099,9.13186813 41.5188253,8.47252747 41.5188253,6.62637363 L41.5188253,6.62637363 Z M54.5655286,16.8131868 C54.5655286,21.7252747 57.8951989,24 62.016078,24 C65.5435505,24 67.8182758,22.3186813 69.2028912,19.7142857 L64.9501439,18.0989011 C64.3237703,19.5164835 63.5325615,20.3406593 62.1479461,20.3406593 C60.1699242,20.3406593 59.4116824,18.7582418 59.4116824,16.8791209 C59.4116824,14.2087912 60.6644297,11.010989 63.3347593,11.010989 C64.7853088,11.010989 65.7083857,11.7362637 65.8732209,13.5164835 L70.3567374,12.3296703 C69.7962978,9.46153846 67.7523417,7.38461538 63.4666275,7.38461538 C58.0930011,7.38461538 54.5655286,11.8681319 54.5655286,16.8131868 L54.5655286,16.8131868 Z M78.1616824,24 C83.6671769,24 87.2276165,19.5824176 87.2276165,14.5714286 C87.2276165,9.75824176 83.6342099,7.38461538 79.6122319,7.38461538 C74.1397044,7.38461538 70.6122319,11.8681319 70.6122319,16.8131868 C70.6122319,21.7252747 73.9419022,24 78.1616824,24 L78.1616824,24 Z M75.3924516,17.010989 C75.3924516,14.2417582 76.6451989,10.9450549 79.5133308,10.9450549 C81.6561879,10.9450549 82.4473967,12.4945055 82.4473967,14.3736264 C82.4473967,17.1428571 81.1946494,20.4395604 78.3265176,20.4395604 C76.1506934,20.4395604 75.3924516,18.8571429 75.3924516,17.010989 L75.3924516,17.010989 Z M95.7248692,24 C101.230364,24 104.790803,19.5824176 104.790803,14.5714286 C104.790803,9.75824176 101.197397,7.38461538 97.1754187,7.38461538 C91.7028912,7.38461538 88.1754187,11.8681319 88.1754187,16.8131868 C88.1754187,21.7252747 91.505089,24 95.7248692,24 L95.7248692,24 Z M92.9556384,17.010989 C92.9556384,14.2417582 94.2083857,10.9450549 97.0765176,10.9450549 C99.2193747,10.9450549 100.010584,12.4945055 100.010584,14.3736264 C100.010584,17.1428571 98.7578363,20.4395604 95.8897044,20.4395604 C93.7138802,20.4395604 92.9556384,18.8571429 92.9556384,17.010989 L92.9556384,17.010989 Z M114.672671,19.5824176 C114.145199,19.8461538 113.485858,20.1428571 112.760584,20.1428571 C112.068276,20.1428571 111.507836,19.8791209 111.738605,18.5604396 L112.991353,11.3076923 L116.386957,11.3076923 L117.013331,7.84615385 L113.617726,7.84615385 L114.771573,1.21978022 L109.661682,3.36263736 L108.870474,7.84615385 L106.266078,7.84615385 L105.639704,11.3076923 L108.2441,11.3076923 L106.925419,18.8901099 C106.332012,22.3516484 108.375968,24 111.771573,24 C112.826518,24 114.145199,23.8021978 115.167177,23.4065934 L114.672671,19.5824176 Z M127.455638,18.6593407 C126.895199,19.6153846 126.005089,20.5054945 124.224869,20.5054945 C121.950144,20.5054945 121.125968,18.7252747 121.356737,16.9120879 L132.202891,16.9120879 C132.202891,16.9120879 132.367726,16.2527473 132.43366,15.9230769 C133.290803,11.5714286 131.21388,7.38461538 125.576518,7.38461538 C120.301792,7.38461538 116.708386,11.8021978 116.708386,16.8461538 C116.708386,21.7582418 120.005089,24 124.224869,24 C127.455638,24 129.961133,22.6153846 131.345748,20.3406593 L127.455638,18.6593407 Z M125.510584,10.7142857 C127.290803,10.7142857 128.312781,11.8681319 128.016078,14.043956 L121.818276,14.043956 C122.279814,12.0659341 123.400693,10.7142857 125.510584,10.7142857 L125.510584,10.7142857 Z M146.96388,7.84615385 C146.30454,7.51648352 145.480364,7.38461538 144.788056,7.38461538 C142.41443,7.38461538 140.897946,8.67032967 139.843001,10.5494505 L140.30454,7.84615385 L135.85399,7.84615385 L133.084759,23.5384615 L137.832012,23.5384615 L139.117726,16.2527473 C139.7441,12.6923077 142.018825,11.5714286 143.700144,11.5714286 C144.293551,11.5714286 144.952891,11.6373626 145.381463,12.032967 L146.96388,7.84615385 Z" id="Scooter" fill="#FFFFFF"></path>
                    <g id="Group" transform="translate(0.000000, 1.000000)" stroke="#FFFFFF" stroke-width="2" stroke-linecap="square">
                        <path d="M0,1 L27,1" id="Line"></path>
                        <path d="M5,6 L25,6" id="Line-Copy-2" opacity="0.8"></path>
                        <path d="M15,11 L23,11" id="Line-Copy-4" opacity="0.6"></path>
                        <path d="M5,16 L21,16" id="Line-Copy-6" opacity="0.5"></path>
                        <path d="M0,21 L19,21" id="Line-Copy-8" opacity="0.3"></path>
                    </g>
                </g>
            </g>
        </g>
    </g>
</svg>